<svg width="6" height="12" viewBox="0 0 6 12" fill="none" xmlns="http://www.w3.org/2000/svg">
<path fill-rule="evenodd" clip-rule="evenodd" d="M3.17805 3.13423L3.23739 3.14596C3.29169 3.14982 3.34554 3.16778 3.39255 3.20077L4.80437 4.19138C5.03291 4.35173 5.16773 4.60536 5.16773 4.87497V6.24291C5.16773 6.39946 5.03391 6.52636 4.86884 6.52636C4.70377 6.52636 4.56995 6.39946 4.56995 6.24291V4.87497C4.56995 4.7851 4.525 4.70056 4.44882 4.64711L3.7308 4.14298L3.73133 6.24291C3.73095 6.39617 3.66589 6.54871 3.53767 6.66041L1.93332 8.05802C1.84537 8.13464 1.78364 8.23449 1.75608 8.3447L1.17962 10.6497C1.10344 10.9544 0.781273 11.1428 0.460039 11.0705C0.138806 10.9983 -0.0598468 10.6927 0.0163383 10.3881L0.592792 8.08305C0.675472 7.75244 0.860668 7.45289 1.12453 7.22303L1.93986 6.51206L1.94 4.04342C1.94 3.85404 2.03973 3.67716 2.2058 3.57198L2.75637 3.22328C2.88324 3.14293 3.03395 3.11352 3.17805 3.13423ZM2.73079 8.06978L3.60026 7.35521C3.64336 7.38201 3.68326 7.41442 3.71865 7.45221L3.76822 7.51289L5.67601 10.2025C5.86028 10.4623 5.78758 10.8146 5.51365 10.9893C5.25928 11.1516 4.92084 11.1037 4.72626 10.8881L4.68401 10.8353L2.77621 8.14573C2.75879 8.12116 2.74367 8.09577 2.73079 8.06978L3.60026 7.35521L2.73079 8.06978ZM1.67322 4.94634V5.69693L0.978024 6.27071C0.867287 6.362 0.705832 6.36225 0.595254 6.27821L0.556361 6.24276C0.460094 6.13774 0.45982 5.98461 0.548443 5.87974L0.585841 5.84286L1.67322 4.94634ZM1.85017 0.805054C2.51046 0.805054 3.04573 1.31268 3.04573 1.93886C3.04573 2.56504 2.51046 3.07266 1.85017 3.07266C1.18989 3.07266 0.654616 2.56504 0.654616 1.93886C0.654616 1.31268 1.18989 0.805054 1.85017 0.805054Z" fill="black"/>
</svg>
